<?xml version="1.0" encoding="UTF-8" standalone="no"?>
<!DOCTYPE svg PUBLIC "-//W3C//DTD SVG 1.1//EN" "http://www.w3.org/Graphics/SVG/1.1/DTD/svg11.dtd">
<svg width="100%" height="100%" viewBox="0 0 250 250" version="1.1" xmlns="http://www.w3.org/2000/svg" xmlns:xlink="http://www.w3.org/1999/xlink" xml:space="preserve" xmlns:serif="http://www.serif.com/" style="fill-rule:evenodd;clip-rule:evenodd;stroke-linejoin:round;stroke-miterlimit:2;">
    <g transform="matrix(5.12,0,0,5.12,0,0)">
        <path d="M24.414,2.93C12.549,2.93 2.93,12.549 2.93,24.414C2.93,35.186 10.864,44.079 21.203,45.633L21.203,30.108L15.888,30.108L15.888,24.461L21.203,24.461L21.203,20.703C21.203,14.481 24.234,11.75 29.405,11.75C31.882,11.75 33.191,11.934 33.812,12.018L33.812,16.947L30.284,16.947C28.089,16.947 27.322,19.028 27.322,21.374L27.322,24.461L33.756,24.461L32.883,30.108L27.322,30.108L27.322,45.679C37.809,44.256 45.898,35.29 45.898,24.414C45.898,12.549 36.279,2.93 24.414,2.93Z" style="fill:rgb(59,167,255);fill-rule:nonzero;"/>
    </g>
</svg>
