<?xml version="1.0" encoding="UTF-8" standalone="no"?>
<!DOCTYPE svg PUBLIC "-//W3C//DTD SVG 1.1//EN" "http://www.w3.org/Graphics/SVG/1.1/DTD/svg11.dtd">
<svg width="100%" height="100%" viewBox="0 0 250 250" version="1.1" xmlns="http://www.w3.org/2000/svg" xmlns:xlink="http://www.w3.org/1999/xlink" xml:space="preserve" xmlns:serif="http://www.serif.com/" style="fill-rule:evenodd;clip-rule:evenodd;stroke-linejoin:round;stroke-miterlimit:2;">
    <path d="M123.98,4.255C190.621,4.255 244.725,58.359 244.725,125C244.725,191.641 190.621,245.745 123.98,245.745C57.34,245.745 3.236,191.641 3.236,125C3.236,58.359 57.34,4.255 123.98,4.255ZM91.605,43.369C65.01,43.369 43.369,65.01 43.369,91.605L43.369,158.395C43.369,184.99 65.01,206.631 91.605,206.631L158.395,206.631C184.99,206.631 206.631,184.99 206.631,158.395L206.631,91.605C206.631,65.01 184.99,43.369 158.395,43.369L91.605,43.369ZM91.605,50.79L158.395,50.79C180.979,50.79 199.21,69.021 199.21,91.605L199.21,158.395C199.21,180.979 180.979,199.21 158.395,199.21L91.605,199.21C69.021,199.21 50.79,180.979 50.79,158.395L50.79,91.605C50.79,69.021 69.021,50.79 91.605,50.79ZM125,84.184C102.502,84.184 84.184,102.502 84.184,125C84.184,147.498 102.502,165.816 125,165.816C147.498,165.816 165.816,147.498 165.816,125C165.816,102.502 147.498,84.184 125,84.184ZM125,91.605C143.487,91.605 158.395,106.513 158.395,125C158.395,143.487 143.487,158.395 125,158.395C106.513,158.395 91.605,143.487 91.605,125C91.605,106.513 106.513,91.605 125,91.605ZM169.526,73.053C165.455,73.053 162.105,76.403 162.105,80.474C162.105,84.545 165.455,87.895 169.526,87.895C173.597,87.895 176.947,84.545 176.947,80.474C176.947,76.403 173.597,73.053 169.526,73.053Z" style="fill:white;"/>
</svg>
