<?xml version="1.0" encoding="UTF-8" standalone="no"?>
<!DOCTYPE svg PUBLIC "-//W3C//DTD SVG 1.1//EN" "http://www.w3.org/Graphics/SVG/1.1/DTD/svg11.dtd">
<svg width="100%" height="100%" viewBox="0 0 250 250" version="1.1" xmlns="http://www.w3.org/2000/svg" xmlns:xlink="http://www.w3.org/1999/xlink" xml:space="preserve" xmlns:serif="http://www.serif.com/" style="fill-rule:evenodd;clip-rule:evenodd;stroke-linejoin:round;stroke-miterlimit:2;">
    <g transform="matrix(5.12,0,0,5.12,0,0)">
        <g>
            <path d="M24.414,1.953C12.028,1.953 1.953,12.028 1.953,24.414C1.953,36.8 12.028,46.875 24.414,46.875C36.8,46.875 46.875,36.8 46.875,24.414C46.875,12.028 36.8,1.953 24.414,1.953ZM35.388,20.043C35.397,20.273 35.403,20.508 35.403,20.743C35.403,27.89 29.961,36.133 20.011,36.133C16.956,36.133 14.111,35.237 11.719,33.702C12.142,33.753 12.57,33.777 13.009,33.777C15.544,33.777 17.877,32.914 19.727,31.463C17.359,31.42 15.363,29.853 14.673,27.706C15.004,27.77 15.343,27.804 15.692,27.804C16.186,27.804 16.664,27.738 17.116,27.613C14.644,27.114 12.779,24.931 12.779,22.309L12.779,22.24C13.509,22.646 14.342,22.89 15.229,22.918C13.776,21.946 12.823,20.292 12.823,18.415C12.823,17.424 13.089,16.495 13.555,15.694C16.224,18.967 20.21,21.12 24.705,21.347C24.612,20.95 24.563,20.538 24.563,20.114C24.563,17.127 26.985,14.705 29.974,14.705C31.529,14.705 32.935,15.361 33.921,16.413C35.152,16.171 36.312,15.721 37.356,15.102C36.953,16.363 36.095,17.424 34.977,18.094C36.072,17.961 37.113,17.672 38.085,17.241C37.36,18.326 36.443,19.28 35.388,20.043Z" style="fill:rgb(59,167,255);fill-rule:nonzero;"/>
        </g>
    </g>
</svg>
